<svg width="22" height="20" viewBox="0 0 22 20" fill="none" xmlns="http://www.w3.org/2000/svg">
<path d="M21.9464 5.83995C21.8968 4.78452 21.7146 4.05892 21.4536 3.43018C21.1844 2.76279 20.7702 2.16527 20.2276 1.66856C19.6974 1.16411 19.0555 0.772132 18.3514 0.523849C17.6764 0.279356 16.906 0.108681 15.7795 0.0621464C14.6446 0.0116714 14.2843 0 11.4058 0C8.52727 0 8.16698 0.0116714 7.03626 0.0582055C5.90974 0.10474 5.13527 0.275567 4.46435 0.519908C3.75185 0.772132 3.11409 1.16017 2.58392 1.66856C2.04549 2.16527 1.62728 2.76673 1.36211 3.42639C1.10115 4.05892 0.918979 4.78058 0.869311 5.83601C0.815436 6.89932 0.802979 7.23688 0.802979 9.93373C0.802979 12.6306 0.815436 12.9681 0.865104 14.0275C0.914772 15.0829 1.0971 15.8085 1.35807 16.4373C1.62728 17.1047 2.04549 17.7022 2.58392 18.1989C3.11409 18.7034 3.75605 19.0953 4.46014 19.3436C5.13527 19.5881 5.90554 19.7588 7.03221 19.8053C8.16277 19.852 8.52323 19.8635 11.4017 19.8635C14.2802 19.8635 14.6405 19.852 15.7712 19.8053C16.8977 19.7588 17.6722 19.5881 18.3431 19.3436C19.768 18.8275 20.8945 17.7721 21.4454 16.4373C21.7062 15.8048 21.8885 15.0829 21.9382 14.0275C21.9878 12.9681 22.0003 12.6306 22.0003 9.93373C22.0003 7.23688 21.9961 6.89932 21.9464 5.83995ZM20.0372 13.9499C19.9916 14.92 19.8176 15.4439 19.6727 15.7931C19.3164 16.6584 18.5834 17.3452 17.6597 17.679C17.287 17.8148 16.7238 17.9778 15.6924 18.0204C14.5742 18.067 14.2388 18.0786 11.41 18.0786C8.58115 18.0786 8.24156 18.067 7.12734 18.0204C6.09191 17.9778 5.53278 17.8148 5.16003 17.679C4.7004 17.5198 4.28202 17.2676 3.94243 16.9378C3.59038 16.6157 3.32117 16.2277 3.1513 15.797C3.00634 15.4478 2.83242 14.92 2.78696 13.9539C2.73713 12.9062 2.72483 12.5918 2.72483 9.94146C2.72483 7.29114 2.73713 6.97298 2.78696 5.92923C2.83242 4.95914 3.00634 4.43529 3.1513 4.08605C3.32117 3.65527 3.59038 3.26345 3.94664 2.94514C4.29027 2.6153 4.70444 2.36308 5.16423 2.20408C5.53699 2.06826 6.10033 1.90532 7.13155 1.86257C8.24981 1.81604 8.58535 1.80437 11.414 1.80437C14.247 1.80437 14.5824 1.81604 15.6966 1.86257C16.7321 1.90532 17.2912 2.06826 17.664 2.20408C18.1236 2.36308 18.542 2.6153 18.8816 2.94514C19.2336 3.26724 19.5028 3.65527 19.6727 4.08605C19.8176 4.43529 19.9916 4.96293 20.0372 5.92923C20.0869 6.97693 20.0993 7.29114 20.0993 9.94146C20.0993 12.5918 20.0869 12.9022 20.0372 13.9499Z" fill="white"/>
<path d="M11.4066 4.83105C8.39977 4.83105 5.96021 7.11653 5.96021 9.93373C5.96021 12.7509 8.39977 15.0364 11.4066 15.0364C14.4135 15.0364 16.8529 12.7509 16.8529 9.93373C16.8529 7.11653 14.4135 4.83105 11.4066 4.83105ZM11.4066 13.2437C9.45591 13.2437 7.87364 11.7614 7.87364 9.93373C7.87364 8.10602 9.45591 6.62375 11.4066 6.62375C13.3574 6.62375 14.9395 8.10602 14.9395 9.93373C14.9395 11.7614 13.3574 13.2437 11.4066 13.2437Z" fill="white"/>
<path d="M18.3393 4.62923C18.3393 5.28707 17.7699 5.82047 17.0676 5.82047C16.3655 5.82047 15.7961 5.28707 15.7961 4.62923C15.7961 3.97124 16.3655 3.43799 17.0676 3.43799C17.7699 3.43799 18.3393 3.97124 18.3393 4.62923Z" fill="white"/>
</svg>
