<svg width="22" height="20" viewBox="0 0 22 20" fill="none" xmlns="http://www.w3.org/2000/svg">
<path d="M21.2824 19.9023V19.9015H21.2877V12.6023C21.2877 9.03145 20.4672 6.28076 16.0115 6.28076C13.8695 6.28076 12.4321 7.38203 11.8452 8.42608H11.7833V6.61413H7.55859V19.9015H11.9576V13.3221C11.9576 11.5897 12.3082 9.91462 14.598 9.91462C16.8541 9.91462 16.8878 11.8916 16.8878 13.4332V19.9023H21.2824Z" fill="white"/>
<path d="M0.395996 6.61523H4.80036V19.9026H0.395996V6.61523Z" fill="white"/>
<path d="M2.59731 0C1.18908 0 0.0463867 1.07059 0.0463867 2.38995C0.0463867 3.70932 1.18908 4.8023 2.59731 4.8023C4.00554 4.8023 5.14823 3.70932 5.14823 2.38995C5.14734 1.07059 4.00465 0 2.59731 0V0Z" fill="white"/>
</svg>
