<svg width="22" height="17" viewBox="0 0 22 17" fill="none" xmlns="http://www.w3.org/2000/svg">
<path d="M21.7186 2.77306C20.9248 3.09429 20.0789 3.30721 19.197 3.4106C20.1042 2.91091 20.7967 2.12568 21.1222 1.17921C20.2764 1.64444 19.3424 1.97306 18.3471 2.15644C17.5439 1.36752 16.3992 0.878906 15.1504 0.878906C12.7275 0.878906 10.7769 2.69306 10.7769 4.91706C10.7769 5.23706 10.8063 5.54475 10.8783 5.83768C7.23999 5.67398 4.02059 4.06537 1.85787 1.61491C1.48029 2.21921 1.25882 2.91091 1.25882 3.65552C1.25882 5.05368 2.03932 6.29306 3.20273 7.0106C2.49961 6.99829 1.80984 6.80998 1.22546 6.51337C1.22546 6.52568 1.22546 6.54168 1.22546 6.55767C1.22546 8.51952 2.74244 10.1491 4.73171 10.5244C4.37548 10.6143 3.98724 10.6574 3.58431 10.6574C3.30413 10.6574 3.02128 10.6426 2.75578 10.5884C3.32281 12.1872 4.93184 13.3626 6.84507 13.4008C5.35611 14.4752 3.46557 15.1226 1.41892 15.1226C1.06002 15.1226 0.715803 15.1078 0.371582 15.0672C2.31016 16.2204 4.60763 16.8789 7.08522 16.8789C15.1384 16.8789 19.5412 10.7251 19.5412 5.39091C19.5412 5.21244 19.5345 5.04014 19.5252 4.86906C20.3938 4.30044 21.1236 3.59029 21.7186 2.77306Z" fill="white"/>
</svg>
